<svg xmlns="http://www.w3.org/2000/svg" width="26" height="26" viewBox="0 0 26 26">
  <g id="Group_12010" data-name="Group 12010" transform="translate(0.196 -0.01)">
    <g id="Ellipse_188" data-name="Ellipse 188" transform="translate(-0.196 0.01)" fill="#fff" stroke="#361432" stroke-width="1">
      <circle cx="13" cy="13" r="13" stroke="none"/>
      <circle cx="13" cy="13" r="12.5" fill="none"/>
    </g>
    <path id="Path_3737" data-name="Path 3737" d="M30.722,16.951c.005-.107.008-.214.008-.323a6.483,6.483,0,0,0-12.965,0c0,.108,0,.216.008.323v0a.032.032,0,0,0,0,0c0,.01,0,.019,0,.028a.36.36,0,0,0,.005.037c0,.012.008.024.012.036s.006.019.01.028a.33.33,0,0,0,.024.042l.01.017a.339.339,0,0,0,.046.052h0l4.487,4.18a.7.7,0,0,0-.579.692v3.5a.706.706,0,0,0,.705.705H26a.706.706,0,0,0,.7-.705v-3.5a.7.7,0,0,0-.579-.692l4.487-4.18h0a.353.353,0,0,0,.045-.051c0-.006.008-.014.012-.02a.337.337,0,0,0,.022-.039c0-.01.007-.02.011-.03a.218.218,0,0,0,.017-.073.265.265,0,0,0,0-.027v0a.01.01,0,0,1,0,0ZM23.041,24.3h.583v.707h-.583V24.3Zm-.54,1.266v-3.5h1.394v.7H24.6v-.7h.637l.016,0h.74l0,3.5-3.5,0Zm4.743-8.276h2.228L25.489,21l1.755-3.709Zm-5.991,0L23.007,21l-3.982-3.709Zm2.642,3.934-1.86-3.934h1.86v3.934Zm2.567-3.934L24.6,21.227V17.293Z" transform="translate(-11.444 -5.346)" fill="#361432" fill-rule="evenodd" opacity="0.748"/>
  </g>
</svg>
