<svg xmlns="http://www.w3.org/2000/svg" width="19" cursor="pointer" fill="white" height="19" viewBox="0 0 348.544 345.637">
  <path id="Path_3539" data-name="Path 3539" d="M481.15,107.18H306.88A43.118,43.118,0,0,0,263.763,150.3v42h-44.8A43.125,43.125,0,0,0,175.728,235.2V409.7a43.238,43.238,0,0,0,43.121,43.121h174.27A43.118,43.118,0,0,0,436.236,409.7v-42h44.8A43.125,43.125,0,0,0,524.271,324.8V150.3A43.238,43.238,0,0,0,481.15,107.18Zm-79.406,302.4,0,0a8.621,8.621,0,0,1-8.621,8.621H218.849a8.736,8.736,0,0,1-8.625-8.621V235.194a8.627,8.627,0,0,1,8.625-8.625h174.27a8.518,8.518,0,0,1,8.621,8.625v174.5ZM489.775,324.8a8.627,8.627,0,0,1-8.625,8.625h-44.8V235.2a43.125,43.125,0,0,0-43.121-43.121H298.255V150.3a8.624,8.624,0,0,1,8.621-8.625h174.27a8.74,8.74,0,0,1,8.625,8.625Z" transform="translate(-175.728 -107.18)"/>
</svg>
