<svg xmlns="http://www.w3.org/2000/svg" width="13.351" height="11.806" viewBox="0 0 13.351 11.806">
  <path id="Path_3718" data-name="Path 3718" d="M6.675,4.185,10.76.2a.64.64,0,0,1,.5-.2h1.395A.643.643,0,0,1,13.3.448a.617.617,0,0,1-.149.7L8.369,5.928l4.782,4.733a.7.7,0,0,1,.149.747.667.667,0,0,1-.648.4H11.209a.64.64,0,0,1-.5-.2L6.675,7.622,2.59,11.657a.842.842,0,0,1-.5.149H.7a.667.667,0,0,1-.648-.4A.7.7,0,0,1,.2,10.661L4.982,5.928.2,1.146A.617.617,0,0,1,.05.448.643.643,0,0,1,.7,0H2.142a.64.64,0,0,1,.5.2Z" transform="translate(0)" fill="#fff" fill-rule="evenodd"/>
</svg>
