<svg xmlns="http://www.w3.org/2000/svg" xmlns:xlink="http://www.w3.org/1999/xlink" width="26" height="26" viewBox="0 0 26 26">
  <defs>
    <clipPath id="clip-path">
      <rect id="Rectangle_2703" data-name="Rectangle 2703" width="15" height="11" transform="translate(-0.107 0.227)" fill="#361432" opacity="0.748"/>
    </clipPath>
  </defs>
  <g id="Group_12011" data-name="Group 12011" transform="translate(-1059 -334)">
    <g id="Ellipse_172" data-name="Ellipse 172" transform="translate(1059 334)" fill="#fff" stroke="#361432" stroke-width="1">
      <circle cx="13" cy="13" r="13" stroke="none"/>
      <circle cx="13" cy="13" r="12.5" fill="none"/>
    </g>
    <g id="discord-color-seeklogo.com-2" transform="translate(1064.608 341.547)" clip-path="url(#clip-path)">
      <path id="Path_3738" data-name="Path 3738" d="M12.516,1.346A12.192,12.192,0,0,0,9.507.413a.046.046,0,0,0-.048.023,8.493,8.493,0,0,0-.375.77,11.256,11.256,0,0,0-3.38,0,7.789,7.789,0,0,0-.381-.77A.047.047,0,0,0,5.275.413a12.158,12.158,0,0,0-3.009.933.043.043,0,0,0-.02.017A12.478,12.478,0,0,0,.061,9.778a.051.051,0,0,0,.019.035,12.26,12.26,0,0,0,3.692,1.866.048.048,0,0,0,.052-.017,8.763,8.763,0,0,0,.755-1.229.047.047,0,0,0-.026-.065A8.074,8.074,0,0,1,3.4,9.819a.047.047,0,0,1,0-.079c.078-.058.155-.119.229-.18a.046.046,0,0,1,.048-.006,8.743,8.743,0,0,0,7.43,0,.046.046,0,0,1,.048.006c.074.061.152.122.23.18a.047.047,0,0,1,0,.079,7.576,7.576,0,0,1-1.154.549.047.047,0,0,0-.025.066,9.839,9.839,0,0,0,.755,1.228.047.047,0,0,0,.052.018,12.22,12.22,0,0,0,3.7-1.866.047.047,0,0,0,.019-.034,12.4,12.4,0,0,0-2.186-8.415A.038.038,0,0,0,12.516,1.346ZM4.941,8.1a1.421,1.421,0,0,1-1.329-1.49,1.413,1.413,0,0,1,1.329-1.49,1.405,1.405,0,0,1,1.329,1.49A1.413,1.413,0,0,1,4.941,8.1Zm4.913,0a1.421,1.421,0,0,1-1.329-1.49,1.413,1.413,0,0,1,1.329-1.49,1.405,1.405,0,0,1,1.329,1.49A1.409,1.409,0,0,1,9.853,8.1Z" transform="translate(0 -0.326)" fill="#361432"/>
    </g>
  </g>
</svg>
