<?xml version="1.0" encoding="UTF-8"?>
<svg width="752pt" height="752pt" version="1.1" viewBox="0 0 752 752" xmlns="http://www.w3.org/2000/svg">
 <g fill="#fff">
  <path d="m376 520.45c-79.656 0-144.44-64.785-144.44-144.44 0-79.66 64.785-144.45 144.44-144.45s144.45 64.785 144.45 144.44-64.789 144.45-144.45 144.45zm0-269.94c-69.191 0-125.5 56.309-125.5 125.5 0.003906 69.188 56.312 125.5 125.5 125.5 69.191 0 125.5-56.309 125.5-125.5 0-69.188-56.309-125.5-125.5-125.5z"/>
  <path d="m406.79 432.83c-10.184 0-15.535-4.2617-19.844-7.7188-3.457-2.7461-5.7773-4.5938-10.988-4.5938s-7.4844 1.8477-10.941 4.5938c-4.3086 3.457-9.6602 7.7188-19.84 7.7188-10.184 0-15.535-4.2617-19.797-7.7188-3.457-2.75-5.7305-4.5938-10.938-4.5938h-7.1055v-14.207h7.1055c10.184 0 15.535 4.2617 19.797 7.7188 3.4531 2.793 5.7734 4.5938 10.938 4.5938 5.2109 0 7.4844-1.8477 10.941-4.5938 4.3086-3.457 9.6602-7.7188 19.844-7.7188 10.184 0 15.535 4.2617 19.844 7.7188 3.4531 2.793 5.7734 4.5938 10.984 4.5938 5.2109 0 7.4844-1.8477 10.941-4.5938 4.3086-3.457 9.6602-7.7188 19.844-7.7188h7.1055v14.207h-7.1094c-5.2109 0-7.4844 1.8477-10.988 4.5938-4.2617 3.457-9.6133 7.7188-19.793 7.7188z"/>
  <path d="m333.38 345.22c0 9.1523-7.4219 16.574-16.574 16.574-9.1562 0-16.578-7.4219-16.578-16.574 0-9.1562 7.4219-16.574 16.578-16.574 9.1523 0 16.574 7.418 16.574 16.574"/>
  <path d="m451.77 345.22c0 9.1523-7.4219 16.574-16.574 16.574-9.1562 0-16.574-7.4219-16.574-16.574 0-9.1562 7.418-16.574 16.574-16.574 9.1523 0 16.574 7.418 16.574 16.574"/>
 </g>
</svg>
