<svg xmlns="http://www.w3.org/2000/svg" width="17" fill="white" height="17" viewBox="0 0 350.652 350.816">
  <g id="redirect-icon" transform="translate(5.024)">
    <path id="Path_3509" data-name="Path 3509" d="M454.1,443.274c.295,1.842-1.2,10.721-8.648,10.721l-220.071-.074a9.086,9.086,0,0,1-9.41-9.183l.184-220.337c0-7.444,6.807-8.764,9.585-8.572l91.292.068V179.205H221.268c-22.328,0-42.091,22.865-42.091,45.2l.029,221.048c0,22.328,17.862,45.1,40.193,45.1l226.054.281c22.328,0,45.208-20.2,45.208-42.534V353.1H454.1Z" transform="translate(-184.201 -140.011)"/>
    <path id="Path_3510" data-name="Path 3510" d="M409.864,184.2v38.629h117.48L375.53,374.644,402.888,402,554.7,250.188v117.48h38.625V184.2Z" transform="translate(-247.7 -184.2)"/>
  </g>
</svg>
