<svg xmlns="http://www.w3.org/2000/svg" width="16" height="16" viewBox="0 0 16 16">
  <path id="Path_3581" data-name="Path 3581" d="M97.1,29.237,94.57,26.67a1.487,1.487,0,0,0-.982-.433,6.728,6.728,0,0,0,1.118-3.729,6.576,6.576,0,1,0-6.575,6.681A6.468,6.468,0,0,0,92.008,27.9a1.526,1.526,0,0,0,.417.953l2.527,2.567a1.609,1.609,0,0,0,2.144,0,1.522,1.522,0,0,0,0-2.178Zm-8.966-2.1a4.628,4.628,0,1,1,4.554-4.627A4.6,4.6,0,0,1,88.131,27.135Z" transform="translate(-81.555 -15.826)" opacity="0.6"/>
</svg>
