<svg xmlns="http://www.w3.org/2000/svg" xmlns:xlink="http://www.w3.org/1999/xlink" width="68.001" height="20" viewBox="0 0 68.001 20">
  <defs>
    <linearGradient id="linear-gradient" x1="0.5" x2="0.5" y2="1" gradientUnits="objectBoundingBox">
      <stop offset="0" stop-color="#fff"/>
      <stop offset="1" stop-color="#a2a1a1"/>
    </linearGradient>
  </defs>
  <g id="Group_11716" data-name="Group 11716" transform="translate(-280 -458.999)">
    <path id="Path_3582" data-name="Path 3582" d="M381.43,154.63s-4.347,3-8.239,2.711-6.164.853-7.389,4.967-3.26,5.232-3.991,7.431a4.9,4.9,0,0,0-.184,3.377h0a2.417,2.417,0,0,0,2.267,1.515,2.373,2.373,0,0,0,2.42-2.322,2.325,2.325,0,0,0-1.521-2.155c1.41-.044,1.936,1.577,1.936,1.577s.534.493,2.9-.171a8.559,8.559,0,0,0,3.912-2.578c-2.45.36-2.984-.815-2.984-.815,5.493-.7,6.8-4.587,6.8-4.587a5.034,5.034,0,0,1-3.754.512,12.589,12.589,0,0,0,5.374-3.279,9.383,9.383,0,0,0,2.45-6.181Z" transform="translate(-33.43 304.369)" fill="url(#linear-gradient)"/>
    <path id="Path_3583" data-name="Path 3583" d="M113.63,162.314c-1.225-4.114-3.5-5.251-7.389-4.967S98,154.636,98,154.636a9.377,9.377,0,0,0,2.45,6.18,12.583,12.583,0,0,0,5.374,3.28,5.033,5.033,0,0,1-3.754-.512s1.3,3.886,6.8,4.588c0,0-.534,1.175-2.983.815a8.562,8.562,0,0,0,3.912,2.578c2.371.663,2.9.171,2.9.171s.526-1.621,1.936-1.577a2.325,2.325,0,0,0-1.521,2.155,2.373,2.373,0,0,0,2.42,2.322,2.417,2.417,0,0,0,2.267-1.515h0a4.9,4.9,0,0,0-.184-3.377c-.732-2.2-2.766-3.316-3.992-7.43Z" transform="translate(181.998 304.363)" fill="url(#linear-gradient)"/>
  </g>
</svg>
