<svg xmlns="http://www.w3.org/2000/svg" width="15.756" height="15.756" viewBox="0 0 15.756 15.756">
  <g id="Layer_2" data-name="Layer 2" transform="translate(-1.25 -1.25)">
    <path id="Path_3720" data-name="Path 3720" d="M13.286,6.1c-.454-2.036-1.268-3.349-2.023-3.349S9.693,4.063,9.239,6.1c.669-.033,1.346-.051,2.023-.051S12.616,6.066,13.286,6.1Z" transform="translate(-2.134 -0.401)" fill="rgba(255,255,255,0.8)"/>
    <path id="Path_3721" data-name="Path 3721" d="M1.25,11.181A7.885,7.885,0,0,0,1.4,12.7a24.534,24.534,0,0,0,4.389.727,17.865,17.865,0,0,1,0-4.491A24.535,24.535,0,0,0,1.4,9.662a7.885,7.885,0,0,0-.15,1.519Z" transform="translate(0 -2.053)" fill="rgba(255,255,255,0.8)"/>
    <path id="Path_3722" data-name="Path 3722" d="M16.557,8.936a18.056,18.056,0,0,1,.142,2.246,18.056,18.056,0,0,1-.142,2.246,24.534,24.534,0,0,0,4.389-.727,7.761,7.761,0,0,0,0-3.038,24.534,24.534,0,0,0-4.389-.727Z" transform="translate(-4.089 -2.053)" fill="rgba(255,255,255,0.8)"/>
    <path id="Path_3723" data-name="Path 3723" d="M9.239,16.68c.454,2.036,1.268,3.349,2.023,3.349s1.569-1.313,2.023-3.349c-.669.033-1.346.051-2.023.051S9.908,16.713,9.239,16.68Z" transform="translate(-2.134 -4.122)" fill="rgba(255,255,255,0.8)"/>
    <path id="Path_3724" data-name="Path 3724" d="M8.75,11.132a16.768,16.768,0,0,0,.16,2.322c.7.037,1.436.06,2.221.06s1.522-.023,2.221-.06a16.768,16.768,0,0,0,.16-2.322,16.768,16.768,0,0,0-.16-2.322c-.7-.037-1.436-.06-2.221-.06s-1.522.023-2.221.06a16.767,16.767,0,0,0-.16,2.322Z" transform="translate(-2.004 -2.004)" fill="rgba(255,255,255,0.8)"/>
    <path id="Path_3725" data-name="Path 3725" d="M19.381,15.724a28.389,28.389,0,0,1-4.221.629c-.5,2.515-1.571,4.52-3.159,4.52A7.884,7.884,0,0,0,19.381,15.724Z" transform="translate(-2.872 -3.867)" fill="rgba(255,255,255,0.8)"/>
    <path id="Path_3726" data-name="Path 3726" d="M15.159,5.77a28.389,28.389,0,0,1,4.221.629A7.884,7.884,0,0,0,12,1.25C13.588,1.25,14.66,3.255,15.159,5.77Z" transform="translate(-2.872)" fill="rgba(255,255,255,0.8)"/>
    <path id="Path_3727" data-name="Path 3727" d="M1.929,15.724a7.884,7.884,0,0,0,7.381,5.149c-1.588,0-2.66-2-3.159-4.52a28.389,28.389,0,0,1-4.221-.629Z" transform="translate(-0.181 -3.867)" fill="rgba(255,255,255,0.8)"/>
    <path id="Path_3728" data-name="Path 3728" d="M1.929,6.4A28.39,28.39,0,0,1,6.15,5.77c.5-2.515,1.571-4.52,3.159-4.52A7.884,7.884,0,0,0,1.929,6.4Z" transform="translate(-0.181)" fill="rgba(255,255,255,0.8)"/>
  </g>
</svg>
