<svg xmlns="http://www.w3.org/2000/svg" width="75" height="75" viewBox="0 0 75 75">
  <g id="customize" transform="translate(306.276 -224.316) rotate(90)">
    <path id="Path_3267" data-name="Path 3267" d="M238.939,240.6v-7.1a2.286,2.286,0,0,0-4.57,0v7.1a11.859,11.859,0,0,0,0,23.411v40.037a2.272,2.272,0,0,0,2.285,2.22,2.249,2.249,0,0,0,2.285-2.22V264.01a11.853,11.853,0,0,0,0-23.411Zm0,18.858a8.305,8.305,0,0,1-2.285.329,8.049,8.049,0,0,1-2.285-.329,7.434,7.434,0,0,1,0-14.293,8.506,8.506,0,0,1,2.285-.329,7.868,7.868,0,0,1,2.285.329,7.421,7.421,0,0,1,0,14.293Z" transform="translate(0 -0.002)" fill="#fff"/>
    <path id="Path_3268" data-name="Path 3268" d="M340.553,273.681V233.5a2.286,2.286,0,0,0-4.57,0v40.185a11.853,11.853,0,0,0,0,23.411v6.954a2.286,2.286,0,0,0,4.57,0V297.1a11.853,11.853,0,0,0,0-23.412Zm0,18.858a8.3,8.3,0,0,1-2.285.329,7.868,7.868,0,0,1-2.285-.329,7.421,7.421,0,0,1,0-14.293,8.3,8.3,0,0,1,2.285-.329,7.869,7.869,0,0,1,2.285.329,7.421,7.421,0,0,1,0,14.293Z" transform="translate(-76.45 -0.002)" fill="#fff"/>
    <path id="Path_3269" data-name="Path 3269" d="M442.233,253.53V233.5a2.272,2.272,0,0,0-2.285-2.22,2.249,2.249,0,0,0-2.285,2.22v20.036a11.872,11.872,0,0,0,0,23.445v27.08a2.286,2.286,0,0,0,4.57,0V276.962a11.873,11.873,0,0,0,0-23.434Zm0,18.847a7.339,7.339,0,0,1-2.285.351,7.179,7.179,0,0,1-2.285-.351,7.421,7.421,0,0,1,0-14.293,8.3,8.3,0,0,1,2.285-.329,8.048,8.048,0,0,1,2.285.329,7.434,7.434,0,0,1,0,14.293Z" transform="translate(-152.976 0)" fill="#fff"/>
    <g id="Ellipse_4" data-name="Ellipse 4" transform="translate(224.316 264.275) rotate(-90)" fill="none" stroke="#ff4dff" stroke-width="5">
      <ellipse cx="12" cy="12.5" rx="12" ry="12.5" stroke="none"/>
      <ellipse cx="12" cy="12.5" rx="9.5" ry="10" fill="none"/>
    </g>
    <g id="Ellipse_5" data-name="Ellipse 5" transform="translate(249.217 297.375) rotate(-90)" fill="none" stroke="#ff4dff" stroke-width="5">
      <ellipse cx="12" cy="12.5" rx="12" ry="12.5" stroke="none"/>
      <ellipse cx="12" cy="12.5" rx="9.5" ry="10" fill="none"/>
    </g>
    <g id="Ellipse_6" data-name="Ellipse 6" transform="translate(274.316 277.275) rotate(-90)" fill="none" stroke="#ff4dff" stroke-width="5">
      <ellipse cx="12" cy="12.5" rx="12" ry="12.5" stroke="none"/>
      <ellipse cx="12" cy="12.5" rx="9.5" ry="10" fill="none"/>
    </g>
  </g>
</svg>
