<svg xmlns="http://www.w3.org/2000/svg" width="75" height="75" viewBox="0 0 75 75">
  <g id="launch" transform="translate(-193.872 -193.857)">
    <path id="Path_3265" data-name="Path 3265" d="M267.5,197.131a4.118,4.118,0,0,0-.761-1.111l-.107-.1a3.656,3.656,0,0,0-.848-.584c-6.579-4.063-30.8-.107-46.988,16.075-1.306,1.306-2.515,2.65-3.635,4h-.078l-16.706,9.333a5.845,5.845,0,0,0,.282,10.366l4.786,2.329c-.117.38-.224.751-.322,1.1l-3.353,3.352h0a5.842,5.842,0,0,0,0,8.261l.215.215h0a14.091,14.091,0,0,0-1.589,1.413c-4.64,4.638-5.4,12.422-3.675,15.13a2.776,2.776,0,0,0,.449.6l.059.059a2.034,2.034,0,0,0,.38.292,7.39,7.39,0,0,0,4.074.975,16.382,16.382,0,0,0,2.788-.254,15.915,15.915,0,0,0,8.421-4.315,14.105,14.105,0,0,0,1.364-1.589l.215.215a5.849,5.849,0,0,0,8.275,0l3.392-3.322,1.1-.321,2.33,4.774h0a5.851,5.851,0,0,0,5.1,3.283h.166a5.849,5.849,0,0,0,5.108-3l9.3-16.718v-.068c1.355-1.12,2.7-2.329,4.006-3.634,16.1-16.066,20.146-39.974,16.257-46.765ZM200.363,231.61a1.948,1.948,0,0,1-.1-3.459l9.7-5.4h0a65.357,65.357,0,0,0-5.273,10.96Zm7.8,29.91c-3.489,3.478-8.9,3.644-10.195,3.166-.478-1.335-.3-6.722,3.168-10.19h0a10.406,10.406,0,0,1,1.647-1.305l6.677,6.674h0a10.431,10.431,0,0,1-1.277,1.666Zm9.854-1.373h0a1.95,1.95,0,0,1-2.758,0L202.527,247.4a1.946,1.946,0,0,1,0-2.757l2.163-2.163,15.5,15.5Zm16.5,2.251h0a1.958,1.958,0,0,1-3.45-.117l-2.105-4.326a65.282,65.282,0,0,0,10.965-5.193Zm14.006-21.27a59.108,59.108,0,0,1-25.1,14.556L206.99,239.257a59.167,59.167,0,0,1,14.621-25.088c15.711-15.7,38.013-18.17,42.193-15.5l.088.049.137.078.059.107.059.117c2.3,4.053.351,26.11-15.625,42.107Z" fill="#fff"/>
    <path id="Path_3266" data-name="Path 3266" d="M368.626,281.044a11.215,11.215,0,1,0,7.921-3.276A11.2,11.2,0,0,0,368.626,281.044Zm13.084,13.085a7.315,7.315,0,1,1,2.138-5.168,7.309,7.309,0,0,1-2.138,5.168Z" transform="translate(-136.174 -66.648)" fill="#ff4dff"/>
  </g>
</svg>
