<svg xmlns="http://www.w3.org/2000/svg" width="75" height="73" viewBox="0 0 75 73">
  <g id="ownership" transform="translate(-792 -1357)">
    <path id="ownership-2" data-name="ownership" d="M212.852,181.146a13.4,13.4,0,0,1-2.448-3.793,14.175,14.175,0,0,1-.236-4.726,11.156,11.156,0,0,0-1.181-7.192,10.814,10.814,0,0,0-6.409-3.378,13.405,13.405,0,0,1-4.3-1.682,13.556,13.556,0,0,1-2.847-3.6,10.976,10.976,0,0,0-5.194-5.2,10.585,10.585,0,0,0-7,1.083,13.971,13.971,0,0,1-4.589,1.247,13.966,13.966,0,0,1-4.586-1.24,10.582,10.582,0,0,0-7-1.091,10.969,10.969,0,0,0-5.187,5.208,13.626,13.626,0,0,1-2.847,3.6,13.457,13.457,0,0,1-4.3,1.681,10.81,10.81,0,0,0-6.413,3.37,11.148,11.148,0,0,0-1.181,7.19,14.189,14.189,0,0,1-.236,4.728,13.4,13.4,0,0,1-2.448,3.793,11.208,11.208,0,0,0-3.3,6.7,11.21,11.21,0,0,0,3.289,6.7,13.388,13.388,0,0,1,2.448,3.793,14.139,14.139,0,0,1,.236,4.725,11.161,11.161,0,0,0,1.182,7.193,10.81,10.81,0,0,0,6.408,3.377,13.415,13.415,0,0,1,4.3,1.682,13.571,13.571,0,0,1,2.848,3.6,10.977,10.977,0,0,0,5.193,5.2,10.587,10.587,0,0,0,7-1.084,13.97,13.97,0,0,1,4.588-1.247,13.971,13.971,0,0,1,4.587,1.24,15.064,15.064,0,0,0,5.227,1.357,5.642,5.642,0,0,0,1.774-.273,10.975,10.975,0,0,0,5.189-5.2,13.6,13.6,0,0,1,2.847-3.6,13.459,13.459,0,0,1,4.3-1.681,10.815,10.815,0,0,0,6.413-3.38,11.158,11.158,0,0,0,1.181-7.19,14.186,14.186,0,0,1,.236-4.728,13.387,13.387,0,0,1,2.448-3.793,11.209,11.209,0,0,0,3.3-6.691,11.205,11.205,0,0,0-3.289-6.7Zm-1.838,11.881a15.226,15.226,0,0,0-2.864,4.565,16.074,16.074,0,0,0-.359,5.59,9.446,9.446,0,0,1-.728,5.655,9.154,9.154,0,0,1-5.116,2.472,15.174,15.174,0,0,0-5.078,2.052,15.36,15.36,0,0,0-3.443,4.24c-1.21,1.9-2.363,3.7-3.934,4.221h0a8.923,8.923,0,0,1-5.435-1.042,15.525,15.525,0,0,0-5.416-1.391,15.535,15.535,0,0,0-5.435,1.4,8.925,8.925,0,0,1-5.434,1.043c-1.579-.521-2.722-2.318-3.932-4.221h0a15.4,15.4,0,0,0-3.443-4.24,15.158,15.158,0,0,0-5.08-2.052,9.151,9.151,0,0,1-5.111-2.469,9.454,9.454,0,0,1-.728-5.658,16.059,16.059,0,0,0-.359-5.587,15.208,15.208,0,0,0-2.864-4.564,9.457,9.457,0,0,1-2.751-5.192,9.456,9.456,0,0,1,2.765-5.182,15.226,15.226,0,0,0,2.864-4.564,16.073,16.073,0,0,0,.359-5.59,9.446,9.446,0,0,1,.728-5.655,9.153,9.153,0,0,1,5.109-2.482,15.156,15.156,0,0,0,5.078-2.051,15.378,15.378,0,0,0,3.441-4.237c1.21-1.9,2.363-3.7,3.934-4.221a8.914,8.914,0,0,1,5.435,1.042,15.506,15.506,0,0,0,5.425,1.4,15.514,15.514,0,0,0,5.435-1.4,8.914,8.914,0,0,1,5.435-1.042c1.579.521,2.722,2.318,3.932,4.221a15.4,15.4,0,0,0,3.443,4.24,15.139,15.139,0,0,0,5.08,2.051,9.154,9.154,0,0,1,5.111,2.47,9.452,9.452,0,0,1,.728,5.657,16.062,16.062,0,0,0,.359,5.588,15.208,15.208,0,0,0,2.864,4.564,9.458,9.458,0,0,1,2.751,5.191,9.451,9.451,0,0,1-2.765,5.182Zm-32.372-31.605a25.776,25.776,0,0,0-18.379,7.74,26.734,26.734,0,0,0,0,37.369,25.693,25.693,0,0,0,36.758,0,26.716,26.716,0,0,0-.008-37.361A25.806,25.806,0,0,0,178.641,161.421Zm0,50.447a23.432,23.432,0,0,1-16.707-7.036,24.3,24.3,0,0,1,0-33.972,23.356,23.356,0,0,1,33.417,0,24.285,24.285,0,0,1-.008,33.964,23.461,23.461,0,0,1-16.7,7.044Zm10.607-29.787-4.036-.6h0a1.607,1.607,0,0,1-1.21-.893l-1.806-3.719a3.994,3.994,0,0,0-2.121-1.973,3.908,3.908,0,0,0-2.875,0,3.994,3.994,0,0,0-2.121,1.973l-1.8,3.719a1.607,1.607,0,0,1-1.21.891l-4.036.6a3.953,3.953,0,0,0-2.5,1.439,4.083,4.083,0,0,0,.3,5.441l2.921,2.9a1.643,1.643,0,0,1,.473,1.441l-.69,4.084h0a4.092,4.092,0,0,0,.574,2.865,3.977,3.977,0,0,0,2.326,1.719,3.913,3.913,0,0,0,2.858-.33l3.608-1.922h0a1.592,1.592,0,0,1,1.493,0l3.611,1.922a3.913,3.913,0,0,0,2.858.33,3.977,3.977,0,0,0,2.326-1.719,4.089,4.089,0,0,0,.574-2.865l-.69-4.084a1.639,1.639,0,0,1,.472-1.441l2.918-2.894h0a4.085,4.085,0,0,0,.3-5.442,3.953,3.953,0,0,0-2.5-1.441Zm.548,5.16-2.918,2.895h0a4.067,4.067,0,0,0-1.149,3.572l.69,4.084h0a1.648,1.648,0,0,1-.639,1.6,1.585,1.585,0,0,1-1.691.126l-3.611-1.922a3.9,3.9,0,0,0-3.694,0l-3.608,1.922a1.585,1.585,0,0,1-1.691-.126,1.648,1.648,0,0,1-.639-1.6l.7-4.083a4.062,4.062,0,0,0-1.141-3.57l-2.918-2.9a1.651,1.651,0,0,1-.406-1.672,1.613,1.613,0,0,1,1.294-1.11l4.036-.6h0a3.969,3.969,0,0,0,2.989-2.208l1.806-3.719h0a1.641,1.641,0,0,1,2.881,0l1.806,3.716h0a3.967,3.967,0,0,0,2.989,2.21l4.036.6h0a1.613,1.613,0,0,1,1.294,1.11,1.651,1.651,0,0,1-.406,1.672Z" transform="translate(650.859 1205.615)" fill="#fff"/>
    <g id="Ellipse_7" data-name="Ellipse 7" transform="translate(803 1367)" fill="none" stroke="#ff4dff" stroke-width="3">
      <circle cx="26.5" cy="26.5" r="26.5" stroke="none"/>
      <circle cx="26.5" cy="26.5" r="25" fill="none"/>
    </g>
  </g>
</svg>
